<svg id="visual" viewBox="0 0 960 540" width="960" height="540" xmlns="http://www.w3.org/2000/svg" xmlns:xlink="http://www.w3.org/1999/xlink" version="1.1"><path d="M0 449L17.8 450C35.7 451 71.3 453 106.8 447.3C142.3 441.7 177.7 428.3 213.2 417.5C248.7 406.7 284.3 398.3 320 403C355.7 407.7 391.3 425.3 426.8 428.8C462.3 432.3 497.7 421.7 533.2 412.2C568.7 402.7 604.3 394.3 640 395.7C675.7 397 711.3 408 746.8 416.8C782.3 425.7 817.7 432.3 853.2 430.3C888.7 428.3 924.3 417.7 942.2 412.3L960 407L960 541L942.2 541C924.3 541 888.7 541 853.2 541C817.7 541 782.3 541 746.8 541C711.3 541 675.7 541 640 541C604.3 541 568.7 541 533.2 541C497.7 541 462.3 541 426.8 541C391.3 541 355.7 541 320 541C284.3 541 248.7 541 213.2 541C177.7 541 142.3 541 106.8 541C71.3 541 35.7 541 17.8 541L0 541Z" fill="#facc15"></path><path d="M0 489L17.8 487.3C35.7 485.7 71.3 482.3 106.8 478.2C142.3 474 177.7 469 213.2 465.8C248.7 462.7 284.3 461.3 320 465.7C355.7 470 391.3 480 426.8 476.2C462.3 472.3 497.7 454.7 533.2 449.3C568.7 444 604.3 451 640 454.5C675.7 458 711.3 458 746.8 459.7C782.3 461.3 817.7 464.7 853.2 470.7C888.7 476.7 924.3 485.3 942.2 489.7L960 494L960 541L942.2 541C924.3 541 888.7 541 853.2 541C817.7 541 782.3 541 746.8 541C711.3 541 675.7 541 640 541C604.3 541 568.7 541 533.2 541C497.7 541 462.3 541 426.8 541C391.3 541 355.7 541 320 541C284.3 541 248.7 541 213.2 541C177.7 541 142.3 541 106.8 541C71.3 541 35.7 541 17.8 541L0 541Z" fill="#cf8faf"></path></svg>